<svg xmlns="http://www.w3.org/2000/svg" width="124" height="43.156" viewBox="0 0 124 43.156">
  <defs>
    <style>
      .cls-1 {
        fill: #5bd8d8;
        fill-rule: evenodd;
      }
    </style>
  </defs>
  <path id="eoxs_copy" data-name="eoxs copy" class="cls-1" d="M373,60.031H497V100H373V60.031Zm2.312,2.25H494.687V97.687H375.312V62.281Zm87.4-3.358-3.981,4,9.032,1.539,1.378-.923,2.143-2.615a2.983,2.983,0,0,0-.153-2.154c-0.665-.831-1.684-2.462-1.684-2.462l-2.6-.307-1.99.461ZM394.079,84.33l13.5-5.516a0.064,0.064,0,0,0,.044-0.023,0.129,0.129,0,0,0,.089-0.022,0.066,0.066,0,0,0,.045-0.023,0.093,0.093,0,0,1,.067-0.022l0.045-.045V78.657a0.2,0.2,0,0,0,.089-0.022A0.064,0.064,0,0,0,408,78.612l0.045-.022a0.477,0.477,0,0,1,.112-0.09,0.241,0.241,0,0,1,.067-0.045l0.044-.045,0.045-.046,0.045-.022,0.022-.023,0.022-.044,0.045-.045,0.067-.045a0.339,0.339,0,0,1,.067-0.09,0.063,0.063,0,0,0,.044-0.045l0.045-.067,0.022-.045,0.067-.067,0.022-.045,0.045-.045a0.168,0.168,0,0,0,.022-0.067,0.063,0.063,0,0,0,.045-0.045l0.022-.068,0.023-.045,0.022-.045,0.022-.067V77.424l0.045-.045a0.17,0.17,0,0,0,.022-0.067,0.065,0.065,0,0,0,.023-0.045L409.1,77.2a0.092,0.092,0,0,1,.022-0.067V77.065a0.063,0.063,0,0,0,.045-0.045V77c0.014-.06.029-0.112,0.044-0.157V76.706a0.092,0.092,0,0,1,.023-0.067V76.1a0.623,0.623,0,0,0-.023-0.134V75.832h-0.022V75.787a0.137,0.137,0,0,0-.022-0.09V75.652a0.127,0.127,0,0,0-.045-0.068V75.563a0.069,0.069,0,0,0-.022-0.045V75.451l-0.022-.023V75.383a0.091,0.091,0,0,1-.023-0.068,0.51,0.51,0,0,1-.089-0.179A12.535,12.535,0,0,0,404.678,70a10.276,10.276,0,0,0-5.958-1.95h-0.4a12.845,12.845,0,0,0-6.4,2,11,11,0,0,0-4.284,5.135,11.731,11.731,0,0,0-.915,4.507,12.228,12.228,0,0,0,.714,4.059c0.045,0.12.089,0.239,0.134,0.358s0.089,0.21.134,0.314a11.73,11.73,0,0,0,2.409,3.521,11.312,11.312,0,0,0,6.65,3.3,16.04,16.04,0,0,0,1.695.09,11.139,11.139,0,0,0,5.579-1.48,14.679,14.679,0,0,0,4.128-3.992,2.606,2.606,0,0,0,.4-1.39,3.642,3.642,0,0,0-.067-0.673,2.547,2.547,0,0,0-1.182-1.659,2.6,2.6,0,0,0-1.406-.4,2.263,2.263,0,0,0-.625.09,2.7,2.7,0,0,0-1.673,1.211,8.374,8.374,0,0,1-2.209,2.152,6.324,6.324,0,0,1-3.124.807h-0.2a6.1,6.1,0,0,1-3.235-1.077,4.649,4.649,0,0,1-.759-0.583h0Zm8.435-9.238L392.093,79.33a5.918,5.918,0,0,1,1.049-3.117,5.8,5.8,0,0,1,5.087-2.781,7.171,7.171,0,0,1,.982.068,5.92,5.92,0,0,1,3.3,1.592h0Zm3.1-2.421a0.275,0.275,0,0,1-.045.157,0.21,0.21,0,0,1-.111.045,0.649,0.649,0,0,1-.357-0.18,12.46,12.46,0,0,0-6.716-2.668q-0.4-.044-0.4-0.291V69.71q0-.18.4-0.247a6.6,6.6,0,0,1,1.2-.112,7.518,7.518,0,0,1,2.678.516,6.1,6.1,0,0,1,3.213,2.444,0.774,0.774,0,0,1,.134.359h0Zm17.36-4.664a11.629,11.629,0,0,0-9.55,18.1,11.438,11.438,0,0,0,9.527,5.225,12.014,12.014,0,0,0,8.3-3.431,11.186,11.186,0,0,0,3.347-8.14v-0.09a11.645,11.645,0,0,0-11.469-11.66h-0.156Zm0.089,5.381a6.428,6.428,0,0,1,6.225,6.234,6.68,6.68,0,0,1-.134,1.3,6.341,6.341,0,0,1-6.069,5.023,6.564,6.564,0,0,1-1.294-.134,6.253,6.253,0,0,1-4.976-6.145,6.05,6.05,0,0,1,1.852-4.417,6.128,6.128,0,0,1,4.4-1.861h0Zm7.229-.762a0.215,0.215,0,0,1-.067.157,0.151,0.151,0,0,1-.111.045,0.565,0.565,0,0,1-.335-0.179,12.341,12.341,0,0,0-6.694-2.669q-0.425-.044-0.424-0.291,0-.2.4-0.269a6.365,6.365,0,0,1,1.2-.112,7.643,7.643,0,0,1,2.677.516,6.1,6.1,0,0,1,3.213,2.444,0.765,0.765,0,0,1,.134.359h0Zm10.42-3.812a2.513,2.513,0,0,0-1.874-.807,2.541,2.541,0,0,0-1.9.807,2.578,2.578,0,0,0-.781,1.883,2.63,2.63,0,0,0,.781,1.928l7.007,7.041-7.007,7.042a2.743,2.743,0,0,0,0,3.834,2.578,2.578,0,0,0,1.9.785,2.549,2.549,0,0,0,1.874-.785l7.051-7.086,7.007,7.086a2.655,2.655,0,0,0,3.77,0,2.743,2.743,0,0,0,0-3.834l-7.006-7.042,17.876-18.194a2.628,2.628,0,0,0,.78-1.928,2.576,2.576,0,0,0-.78-1.884,2.605,2.605,0,0,0-3.771,0L447.764,75.876Zm28.809-9.9v0.022a0.551,0.551,0,0,1-.2.336,0.357,0.357,0,0,1-.245.157,0.125,0.125,0,0,1-.089-0.045A1.674,1.674,0,0,0,467.4,58.31a2.992,2.992,0,0,0-.758.112H466.6c-0.149,0-.223-0.037-0.223-0.112a0.7,0.7,0,0,1,.089-0.269,1.45,1.45,0,0,1,.491-0.381,1.481,1.481,0,0,1,.58-0.112,2.2,2.2,0,0,1,.737.134,2.152,2.152,0,0,1,1.2,1.054,0.531,0.531,0,0,1,.044.179h0Zm-32.58,11.131a2.151,2.151,0,0,1,1.2-1.053,2.194,2.194,0,0,1,.737-0.135,1.3,1.3,0,0,1,1.071.493,0.7,0.7,0,0,1,.089.269c0,0.075-.075.112-0.223,0.112h-0.045a3.017,3.017,0,0,0-.758-0.112,1.673,1.673,0,0,0-1.585,1.076,0.126,0.126,0,0,1-.089.045,0.353,0.353,0,0,1-.245-0.157,0.55,0.55,0,0,1-.2-0.336V70.226a0.515,0.515,0,0,1,.044-0.18h0Zm31.127-2.04A6.839,6.839,0,0,0,463,70.113a7.171,7.171,0,0,0,0,10.181,6.874,6.874,0,0,0,5.065,2.086h7.988a1.746,1.746,0,0,1,1.294,2.96,1.521,1.521,0,0,1-1.16.538H463.606a2.548,2.548,0,0,0-2.008.83,2.806,2.806,0,0,0-.669,1.883,2.668,2.668,0,0,0,.669,1.861,2.488,2.488,0,0,0,2.008.875H476.66a5.907,5.907,0,0,0,4.6-2.332,7.182,7.182,0,0,0,1.941-4.866,6.888,6.888,0,0,0-2.075-5.046,6.792,6.792,0,0,0-5-2.13h-8.055a1.716,1.716,0,0,1-1.272-.493,1.589,1.589,0,0,1-.535-1.256,1.7,1.7,0,0,1,.535-1.278,1.813,1.813,0,0,1,1.272-.448H478.69a2.474,2.474,0,0,0,2.008-.852,2.748,2.748,0,0,0,.67-1.884,2.666,2.666,0,0,0-.67-1.861,2.446,2.446,0,0,0-2.008-.875H468.069Zm13.1,13.1a0.276,0.276,0,0,1-.045.157,0.151,0.151,0,0,1-.111.045,0.754,0.754,0,0,1-.357-0.179,12.342,12.342,0,0,0-6.694-2.668q-0.424-.045-0.424-0.292,0-.2.4-0.269a6.381,6.381,0,0,1,1.2-.112,7.7,7.7,0,0,1,2.7.516,6.107,6.107,0,0,1,3.191,2.444,0.773,0.773,0,0,1,.134.359h0ZM480.475,70v0.022a0.553,0.553,0,0,1-.2.337,0.358,0.358,0,0,1-.245.157,0.126,0.126,0,0,1-.089-0.045,1.675,1.675,0,0,0-1.585-1.077c-0.223,0-.446-0.007-0.669-0.022a0.435,0.435,0,0,1-.424-0.247,0.361,0.361,0,0,1-.022-0.112,0.593,0.593,0,0,1,.178-0.381h1.071a2.22,2.22,0,0,1,.737.134,2.154,2.154,0,0,1,1.2,1.054,0.534,0.534,0,0,1,.044.179h0Z" transform="translate(-373 -56.844)"/>
</svg>
